<svg xmlns="http://www.w3.org/2000/svg" width="60" height="60.001" viewBox="0 0 60 60.001">
  <g id="Admin" transform="translate(-2 -1.999)">
    <path id="Caminho_967" data-name="Caminho 967" d="M48,13h2v2H48Z" fill="#2e3743"/>
    <path id="Caminho_968" data-name="Caminho 968" d="M44,13h2v2H44Z" fill="#2e3743"/>
    <path id="Caminho_969" data-name="Caminho 969" d="M46,35h2v2H46Z" fill="#2e3743"/>
    <path id="Caminho_970" data-name="Caminho 970" d="M46,39h2v2H46Z" fill="#2e3743"/>
    <path id="Caminho_971" data-name="Caminho 971" d="M8,23H6a5.006,5.006,0,0,0,5,5H25V26H11A3,3,0,0,1,8,23Z" fill="#2e3743"/>
    <path id="Caminho_972" data-name="Caminho 972" d="M12,16a4,4,0,1,0-4-4A4,4,0,0,0,12,16Zm0-6a2,2,0,1,1-2,2A2,2,0,0,1,12,10Z" fill="#2e3743"/>
    <path id="Caminho_973" data-name="Caminho 973" d="M62,23a9.015,9.015,0,0,0-6.86-8.73l1.57-1.56A1.033,1.033,0,0,0,57,12V9a7.008,7.008,0,0,0-7-7H44a7.008,7.008,0,0,0-6.94,6.11A14.96,14.96,0,0,0,17.94,3.77l-.32-.29a1,1,0,0,0-1.18-.12l-1.15.69-.32-1.29A1,1,0,0,0,14,2H10a1,1,0,0,0-.97.76L8.71,4.05,7.56,3.36a1,1,0,0,0-1.18.12L3.33,6.26a1,1,0,0,0-.16,1.3l.8,1.17-1.21.3A1,1,0,0,0,2,10v4a1,1,0,0,0,.76.97l1.21.3-.8,1.17a1,1,0,0,0,.16,1.3l.23.21A8.989,8.989,0,0,0,11,32H32.76A11.072,11.072,0,0,0,32,36V47h.02a1.477,1.477,0,0,0-.01.21A4.061,4.061,0,0,0,36,50.98V59a3.009,3.009,0,0,0,3,3H55a3.009,3.009,0,0,0,3-3V50.9A5.017,5.017,0,0,0,62,46V36a10.961,10.961,0,0,0-2.42-6.87A8.957,8.957,0,0,0,62,23Zm-2,0a6.984,6.984,0,0,1-1.809,4.689A10.954,10.954,0,0,0,51,25h-.15l-.48-2.87A7.008,7.008,0,0,0,54,16.08,7.012,7.012,0,0,1,60,23ZM45.18,25l.36-2.16a6.741,6.741,0,0,0,2.92,0L48.82,25Zm3.2,2L47,29.76,45.62,27ZM47,21a5,5,0,0,1-5-5V10.62l3.12-1.56L52,10.78V16a5,5,0,0,1-5,5ZM39,9a5,5,0,0,1,5-5h6a5,5,0,0,1,5,5v2.59l-1,1V10a1,1,0,0,0-.76-.97l-8-2a.978.978,0,0,0-.69.08l-4,2A.977.977,0,0,0,40,10v2.59l-1-1ZM4,10.78l1.84-.46a.992.992,0,0,0,.59-1.53L5.32,7.15,7.17,5.46l1.66,1a1.023,1.023,0,0,0,.9.07,1.045,1.045,0,0,0,.59-.69L10.78,4h2.44l.46,1.84a1.045,1.045,0,0,0,.59.69,1.023,1.023,0,0,0,.9-.07l1.66-1,1.85,1.69L17.57,8.79a.992.992,0,0,0,.59,1.53l1.84.46v2.44l-1.84.46a.992.992,0,0,0-.59,1.53l1.11,1.64-1.85,1.69-1.66-1a1.023,1.023,0,0,0-.9-.07,1.045,1.045,0,0,0-.59.69L13.22,20H10.78l-.46-1.84a1.045,1.045,0,0,0-.59-.69,1.023,1.023,0,0,0-.9.07l-1.66,1L5.32,16.85l1.11-1.64a.992.992,0,0,0-.59-1.53L4,13.22ZM11,30A6.982,6.982,0,0,1,5.06,19.32l1.32,1.2a1.01,1.01,0,0,0,1.18.12l1.15-.69.32,1.29A1,1,0,0,0,10,22h4a1,1,0,0,0,.97-.76l.32-1.29,1.15.69a1.011,1.011,0,0,0,1.18-.12l3.05-2.78a1,1,0,0,0,.16-1.3l-.8-1.17,1.21-.3A1,1,0,0,0,22,14V10a1,1,0,0,0-.76-.97l-1.21-.3.8-1.17a1,1,0,0,0-.16-1.3L19.52,5.21A12.991,12.991,0,0,1,35.74,9.69a13.713,13.713,0,0,1,1.31,2.64,5.7,5.7,0,0,1-9.36,5.94l-1.38,1.46a7.945,7.945,0,0,0,5.41,2.14,7.611,7.611,0,0,0,3.78-1,7.735,7.735,0,0,0,3.81-6.14l.69.68V16a7,7,0,0,0,3.63,6.13L43.15,25H43a11,11,0,0,0-9.21,5Zm23,9h4v1.01a2.8,2.8,0,0,0-.5.03A3.086,3.086,0,0,0,35,43.11v.02a3.974,3.974,0,0,0-1,.41ZM56,59a1,1,0,0,1-1,1H39a1,1,0,0,1-1-1V51H56Zm4-13a3.009,3.009,0,0,1-3,3H36.17A2.127,2.127,0,0,1,34,47.11,2,2,0,0,1,36,45a1,1,0,0,0,1-1v-.89A.973.973,0,0,1,38,42a.987.987,0,0,1,.65.24A1.011,1.011,0,0,1,39,43v1a1,1,0,0,0,1,1H55a1,1,0,0,0,1-1V39h4Zm0-10v1H55a1,1,0,0,0-1,1v5H41a3.017,3.017,0,0,0-1-2.23V38a1,1,0,0,0-1-1H34V36a9.014,9.014,0,0,1,9-9h.38l2.73,5.45a1,1,0,0,0,1.78,0L50.62,27H51A9.014,9.014,0,0,1,60,36Z" fill="#2e3743"/>
    <path id="Caminho_974" data-name="Caminho 974" d="M15,34h2v2H15Z" fill="#2e3743"/>
    <path id="Caminho_975" data-name="Caminho 975" d="M17,43V38H15v5a7.008,7.008,0,0,0,7,7h4V48H22A5.006,5.006,0,0,1,17,43Z" fill="#2e3743"/>
    <path id="Caminho_976" data-name="Caminho 976" d="M28,48h2v2H28Z" fill="#2e3743"/>
  </g>
</svg>
