<svg id="Camada_2" data-name="Camada 2" xmlns="http://www.w3.org/2000/svg" width="609.525" height="454.23" viewBox="0 0 609.525 454.23">
  <g id="Background_Complete" data-name="Background Complete">
    <rect id="Retângulo_375" data-name="Retângulo 375" width="609.525" height="0.305" transform="translate(0 399.178)" fill="#ebebeb"/>
    <rect id="Retângulo_376" data-name="Retângulo 376" width="40.375" height="0.305" transform="translate(508.076 418.793)" fill="#ebebeb"/>
    <rect id="Retângulo_377" data-name="Retângulo 377" width="10.594" height="0.305" transform="translate(393.18 422.109)" fill="#ebebeb"/>
    <rect id="Retângulo_378" data-name="Retângulo 378" width="23.394" height="0.305" transform="translate(483.463 407.48)" fill="#ebebeb"/>
    <rect id="Retângulo_379" data-name="Retângulo 379" width="52.651" height="0.305" transform="translate(63.951 409.528)" fill="#ebebeb"/>
    <rect id="Retângulo_380" data-name="Retângulo 380" width="7.717" height="0.305" transform="translate(127.464 409.528)" fill="#ebebeb"/>
    <rect id="Retângulo_381" data-name="Retângulo 381" width="114.201" height="0.305" transform="translate(160.269 414.672)" fill="#ebebeb"/>
    <path id="Caminho_837" data-name="Caminho 837" d="M280.545,344.809H45.159a6.961,6.961,0,0,1-6.949-6.961V6.961A6.961,6.961,0,0,1,45.159,0H280.545a6.961,6.961,0,0,1,6.961,6.961V337.848A6.961,6.961,0,0,1,280.545,344.809ZM45.159.3a6.656,6.656,0,0,0-6.644,6.656V337.848a6.656,6.656,0,0,0,6.644,6.656H280.545a6.668,6.668,0,0,0,6.656-6.656V6.961A6.668,6.668,0,0,0,280.545.3Z" transform="translate(8.37)" fill="#ebebeb"/>
    <path id="Caminho_838" data-name="Caminho 838" d="M496.859,344.809h-235.4a6.973,6.973,0,0,1-6.961-6.961V6.961A6.973,6.973,0,0,1,261.461,0h235.4A6.961,6.961,0,0,1,503.8,6.961V337.848a6.961,6.961,0,0,1-6.936,6.961ZM261.461.3A6.668,6.668,0,0,0,254.8,6.961V337.848a6.668,6.668,0,0,0,6.656,6.656h235.4a6.668,6.668,0,0,0,6.656-6.656V6.961A6.668,6.668,0,0,0,496.859.3Z" transform="translate(55.748)" fill="#ebebeb"/>
    <rect id="Retângulo_382" data-name="Retângulo 382" width="282.442" height="187.819" transform="translate(500.823 228.852) rotate(180)" fill="#e6e6e6"/>
    <rect id="Retângulo_383" data-name="Retângulo 383" width="282.442" height="187.819" transform="translate(496.446 228.852) rotate(180)" fill="#f5f5f5"/>
    <rect id="Retângulo_384" data-name="Retângulo 384" width="170.192" height="266.753" transform="translate(488.608 49.847) rotate(90)" fill="#fff"/>
    <rect id="Retângulo_385" data-name="Retângulo 385" width="170.192" height="3.304" transform="translate(225.146 49.859) rotate(90)" fill="#e6e6e6"/>
    <rect id="Retângulo_386" data-name="Retângulo 386" width="275.957" height="11.837" transform="translate(493.204 178.969) rotate(180)" fill="#f5f5f5"/>
    <g id="Grupo_12" data-name="Grupo 12" transform="translate(205.239 31.756)" opacity="0.4">
      <rect id="Retângulo_387" data-name="Retângulo 387" width="26.661" height="158.891" transform="translate(0 0.012)" fill="#e6e6e6"/>
      <rect id="Retângulo_388" data-name="Retângulo 388" width="13.215" height="146.128" transform="translate(39.887 146.128) rotate(180)" fill="#f5f5f5"/>
      <rect id="Retângulo_389" data-name="Retângulo 389" width="26.661" height="158.891" transform="translate(39.887 0.012)" fill="#e6e6e6"/>
      <rect id="Retângulo_390" data-name="Retângulo 390" width="13.215" height="146.128" transform="translate(79.775 146.128) rotate(180)" fill="#f5f5f5"/>
      <rect id="Retângulo_391" data-name="Retângulo 391" width="26.661" height="158.891" transform="translate(79.775 0.012)" fill="#e6e6e6"/>
      <rect id="Retângulo_392" data-name="Retângulo 392" width="13.215" height="146.128" transform="translate(119.662 146.128) rotate(180)" fill="#f5f5f5"/>
      <rect id="Retângulo_393" data-name="Retângulo 393" width="26.661" height="158.891" transform="translate(119.662 0.012)" fill="#e6e6e6"/>
      <rect id="Retângulo_394" data-name="Retângulo 394" width="13.215" height="146.128" transform="translate(159.549 146.128) rotate(180)" fill="#f5f5f5"/>
      <rect id="Retângulo_395" data-name="Retângulo 395" width="26.661" height="158.891" transform="translate(159.549 0.012)" fill="#e6e6e6"/>
      <rect id="Retângulo_396" data-name="Retângulo 396" width="13.215" height="146.128" transform="translate(199.425 146.128) rotate(180)" fill="#f5f5f5"/>
      <rect id="Retângulo_397" data-name="Retângulo 397" width="26.661" height="158.891" transform="translate(199.425 0.012)" fill="#e6e6e6"/>
      <rect id="Retângulo_398" data-name="Retângulo 398" width="13.215" height="146.128" transform="translate(239.312 146.128) rotate(180)" fill="#f5f5f5"/>
      <rect id="Retângulo_399" data-name="Retângulo 399" width="26.661" height="158.891" transform="translate(239.312 0.012)" fill="#e6e6e6"/>
      <rect id="Retângulo_400" data-name="Retângulo 400" width="13.215" height="146.128" transform="translate(279.199 146.128) rotate(180)" fill="#f5f5f5"/>
      <rect id="Retângulo_401" data-name="Retângulo 401" width="26.661" height="158.891" transform="translate(279.199 0.012)" fill="#e6e6e6"/>
    </g>
    <rect id="Retângulo_402" data-name="Retângulo 402" width="62.525" height="128.488" transform="translate(163.45 399.166) rotate(180)" fill="#ebebeb"/>
    <path id="Caminho_839" data-name="Caminho 839" d="M94.664,332.153H82.79V305.98h24.332Z" transform="translate(18.135 67.025)" fill="#f5f5f5"/>
    <rect id="Retângulo_403" data-name="Retângulo 403" width="62.525" height="128.488" transform="translate(520.193 399.166) rotate(180)" fill="#ebebeb"/>
    <rect id="Retângulo_404" data-name="Retângulo 404" width="367.105" height="112.433" transform="translate(468.03 383.111) rotate(180)" fill="#f5f5f5"/>
    <path id="Caminho_840" data-name="Caminho 840" d="M393.654,301.405H284.83a1.012,1.012,0,0,1-1-1.012V229.25a1,1,0,0,1,1-1h20.09a.963.963,0,0,1,.6.207,35.523,35.523,0,0,0,9.813,5.023,41.046,41.046,0,0,0,13.141,2.1H350a38.705,38.705,0,0,0,23.028-7.119.951.951,0,0,1,.585-.207h20.1a1,1,0,0,1,1,1v71.144a1.012,1.012,0,0,1-1.061,1.012Zm-107.825-2.011H392.655V230.261H373.881A40.838,40.838,0,0,1,350,237.576H328.472a43.24,43.24,0,0,1-13.775-2.206,37.291,37.291,0,0,1-10.094-5.12H285.829Z" transform="translate(62.173 49.998)" fill="#e6e6e6"/>
    <path id="Caminho_841" data-name="Caminho 841" d="M297.736,301.405H188.9a1.012,1.012,0,0,1-1-1.012V229.25a1,1,0,0,1,1-1h19a.963.963,0,0,1,.6.207,34.877,34.877,0,0,0,9.752,5.022,41.046,41.046,0,0,0,13.141,2.1h21.528a38.6,38.6,0,0,0,22.93-7.119,1.012,1.012,0,0,1,.6-.207h21.285a1,1,0,0,1,1,1v71.144a1,1,0,0,1-1,1.012Zm-107.825-2.011H296.737V230.261H276.842a40.789,40.789,0,0,1-23.857,7.314H231.457a43.239,43.239,0,0,1-13.775-2.206,37.192,37.192,0,0,1-10.106-5.12H189.9Z" transform="translate(41.16 49.998)" fill="#e6e6e6"/>
    <path id="Caminho_842" data-name="Caminho 842" d="M201.8,301.405H92.98a1,1,0,0,1-1-1.012V229.25a1,1,0,0,1,1-1h19a1.023,1.023,0,0,1,.585.2,35.22,35.22,0,0,0,9.752,5.035,41.057,41.057,0,0,0,13.154,2.1H157a38.693,38.693,0,0,0,22.955-7.119.963.963,0,0,1,.6-.207h21.187a1,1,0,0,1,1,1v71.144A1.012,1.012,0,0,1,201.8,301.405ZM93.979,299.394H200.8V230.261H181a40.826,40.826,0,0,1-23.869,7.314H135.537a43.129,43.129,0,0,1-13.775-2.206,37.181,37.181,0,0,1-10.106-5.12H93.979Z" transform="translate(20.148 49.998)" fill="#e6e6e6"/>
    <path id="Caminho_843" data-name="Caminho 843" d="M376.427,332.153H388.3V305.98H363.98Z" transform="translate(79.73 67.025)" fill="#f5f5f5"/>
    <path id="Caminho_844" data-name="Caminho 844" d="M146.466,229.59H136.6c.073-6.827,0-24.162-.695-63.866-1.219-71.924-3.5-76.374-3.5-76.374L144.1,124.873a96.3,96.3,0,0,1,4.876,25.856C150.2,178.414,145.32,200.527,146.466,229.59Z" transform="translate(29.004 19.572)" fill="#e6e6e6"/>
    <path id="Caminho_845" data-name="Caminho 845" d="M152.286,116.95c13.154-19.907,39.412-30.293,66.255-40.07,10.533-3.84-19.042,43.788-40.546,65.378-16.7,16.774-32.914,16.408-37.705,32.988C139.364,156,140.948,134.1,152.286,116.95Z" transform="translate(30.682 16.792)" fill="#e6e6e6"/>
    <path id="Caminho_846" data-name="Caminho 846" d="M150,112.771C139.69,89.5,113.638,59.3,84.357,38.031c-11.5-8.35,16.872,63.391,36.876,92.709,15.579,22.869,30.111,36.791,32.378,53.114C163.437,163.447,160.3,136.055,150,112.771Z" transform="translate(17.897 8.184)" fill="#e6e6e6"/>
    <path id="Caminho_847" data-name="Caminho 847" d="M142.795,229.29h0a21.833,21.833,0,0,0,21.8-20.589L166.53,189H119.06l1.926,19.736a21.845,21.845,0,0,0,21.809,20.553Z" transform="translate(26.08 41.401)" fill="#f0f0f0"/>
    <path id="Caminho_848" data-name="Caminho 848" d="M116.816,190.322H170.43l1.536-7.022H115.28Z" transform="translate(25.252 40.152)" fill="#f0f0f0"/>
    <path id="Caminho_849" data-name="Caminho 849" d="M118.96,200.18h48.323l1.39-7.01h-51.1Z" transform="translate(25.754 42.314)" fill="#f0f0f0"/>
  </g>
  <g id="Background_Simple" data-name="Background Simple" transform="translate(76.649 55.511)">
    <path id="Caminho_850" data-name="Caminho 850" d="M372.666,63.875C332.62,40.616,266.779,37.812,229.379,65.167c-41.3,30.22-34.962,87.577-77.215,114.81-42.972,27.7-94.537,15.921-88.857,87.247,4.376,54.979,51.2,69.669,96.305,84.3,80.872,26.246,237.434,55.418,294.45-31.9C518.952,220.219,462.51,115.99,372.666,63.875Z" transform="translate(-62.876 -45.537)" fill="#407bff"/>
    <path id="Caminho_851" data-name="Caminho 851" d="M372.666,63.875C332.62,40.616,266.779,37.812,229.379,65.167c-41.3,30.22-34.962,87.577-77.215,114.81-42.972,27.7-94.537,15.921-88.857,87.247,4.376,54.979,51.2,69.669,96.305,84.3,80.872,26.246,237.434,55.418,294.45-31.9C518.952,220.219,462.51,115.99,372.666,63.875Z" transform="translate(-62.876 -45.537)" fill="#fff" opacity="0.9"/>
  </g>
  <g id="Shadow" transform="translate(68.401 426.631)">
    <ellipse id="_Path_" data-name="&lt;Path&gt;" cx="236.362" cy="13.8" rx="236.362" ry="13.8" fill="#f5f5f5"/>
  </g>
  <g id="Table" transform="translate(115.456 321.074)">
    <rect id="Retângulo_405" data-name="Retângulo 405" width="378.601" height="42.862" fill="#407bff"/>
    <rect id="Retângulo_406" data-name="Retângulo 406" width="81.213" height="42.862" transform="translate(297.4)" opacity="0.3"/>
    <rect id="Retângulo_407" data-name="Retângulo 407" width="41.801" height="76.495" transform="translate(0 42.862)" fill="#407bff"/>
    <path id="Caminho_852" data-name="Caminho 852" d="M94.72,298.54v4.279l29.6,8.936v63.281h12.19v-76.5Z" transform="translate(-94.708 -255.678)" opacity="0.3"/>
    <rect id="Retângulo_408" data-name="Retângulo 408" width="41.801" height="76.495" transform="translate(336.812 42.862)" fill="#407bff"/>
    <rect id="Retângulo_409" data-name="Retângulo 409" width="41.801" height="76.495" transform="translate(336.812 42.862)" opacity="0.2"/>
    <path id="Caminho_853" data-name="Caminho 853" d="M371,298.54v4.279l29.611,8.936v63.281H412.8v-76.5Z" transform="translate(-34.188 -255.678)" opacity="0.3"/>
    <rect id="Retângulo_410" data-name="Retângulo 410" width="41.801" height="76.495" transform="translate(255.598 42.862)" fill="#407bff"/>
    <path id="Caminho_854" data-name="Caminho 854" d="M304.38,298.54v4.279l29.611,8.936v63.281h12.19v-76.5Z" transform="translate(-48.782 -255.678)" opacity="0.3"/>
    <rect id="Retângulo_411" data-name="Retângulo 411" width="41.801" height="76.495" transform="translate(81.213 42.862)" fill="#407bff"/>
    <rect id="Retângulo_412" data-name="Retângulo 412" width="41.801" height="76.495" transform="translate(81.213 42.862)" opacity="0.2"/>
    <path id="Caminho_855" data-name="Caminho 855" d="M161.33,298.54v4.279l29.611,8.936v63.281h12.191v-76.5Z" transform="translate(-80.117 -255.678)" opacity="0.3"/>
  </g>
  <g id="Character" transform="translate(158.155 99.72)">
    <path id="Caminho_856" data-name="Caminho 856" d="M405.018,285.655H173.545a5.205,5.205,0,0,1-5.242-5.6l9.533-151.284a6.1,6.1,0,0,1,5.961-5.6H415.258a5.205,5.205,0,0,1,5.242,5.6L410.967,280.06A6.1,6.1,0,0,1,405.018,285.655Z" transform="translate(-121.291 -72.737)" fill="#263238"/>
    <path id="Caminho_857" data-name="Caminho 857" d="M405.018,285.655H173.545a5.205,5.205,0,0,1-5.242-5.6l9.533-151.284a6.1,6.1,0,0,1,5.961-5.6H415.258a5.205,5.205,0,0,1,5.242,5.6L410.967,280.06A6.1,6.1,0,0,1,405.018,285.655Z" transform="translate(-121.291 -72.737)" opacity="0.6"/>
    <path id="Caminho_858" data-name="Caminho 858" d="M403.6,285.655H172.137a5.205,5.205,0,0,1-5.254-5.6l9.533-151.284a6.1,6.1,0,0,1,5.961-5.6H413.838a5.205,5.205,0,0,1,5.242,5.6L409.547,280.06A6.1,6.1,0,0,1,403.6,285.655Z" transform="translate(-121.602 -72.737)" fill="#263238"/>
    <path id="Caminho_859" data-name="Caminho 859" d="M411.439,258H136.019a6.717,6.717,0,0,0-6.1,3.767,1.926,1.926,0,0,0,1.768,2.755H415.706a1.926,1.926,0,0,0,1.768-2.755A6.693,6.693,0,0,0,411.439,258Z" transform="translate(-129.736 -43.205)" fill="#263238"/>
    <path id="Caminho_860" data-name="Caminho 860" d="M368.976,258H329.808a6.68,6.68,0,0,0-6.034,3.767,1.926,1.926,0,0,0,1.755,2.755h47.714a1.926,1.926,0,0,0,1.768-2.755A6.693,6.693,0,0,0,368.976,258Z" transform="translate(-87.273 -43.205)" opacity="0.6"/>
    <path id="Caminho_861" data-name="Caminho 861" d="M342.876,262.26H332.758a.878.878,0,0,1-.878-.89h0a.89.89,0,0,1,.878-.89h10.118a.89.89,0,0,1,.89.89h0A.89.89,0,0,1,342.876,262.26Z" transform="translate(-85.456 -42.662)" fill="#407bff"/>
    <path id="Caminho_862" data-name="Caminho 862" d="M236.146,262.26H226.04a.89.89,0,0,1-.89-.89h0a.89.89,0,0,1,.89-.89h10.106a.89.89,0,0,1,.89.89h0a.89.89,0,0,1-.89.89Z" transform="translate(-108.836 -42.662)" fill="#fff" opacity="0.7"/>
    <rect id="Retângulo_413" data-name="Retângulo 413" width="8.082" height="1.78" rx="0.6" transform="translate(260.54 217.818)" fill="#407bff"/>
    <path id="Caminho_863" data-name="Caminho 863" d="M171.161,272.989l8.85-140.337a2.365,2.365,0,0,1,2.316-2.182h228.56a2.024,2.024,0,0,1,2.036,2.182l-8.838,140.337a2.365,2.365,0,0,1-2.328,2.182H173.209a2.036,2.036,0,0,1-2.048-2.182Z" transform="translate(-120.663 -71.14)" fill="#fff"/>
    <path id="Caminho_864" data-name="Caminho 864" d="M301.961,126.93l-76.13,144.7H169.669a2.024,2.024,0,0,1-2.048-2.182l8.85-140.337a2.365,2.365,0,0,1,2.316-2.182Z" transform="translate(-121.439 -71.916)" fill="#407bff" opacity="0.1"/>
    <path id="Caminho_865" data-name="Caminho 865" d="M349.379,126.93l-76.13,144.7H255.5l76.13-144.7Z" transform="translate(-102.187 -71.916)" fill="#407bff" opacity="0.1"/>
    <path id="Caminho_866" data-name="Caminho 866" d="M383.5,129.112l-8.85,140.337a2.353,2.353,0,0,1-2.316,2.182H285.78l76.13-144.7h19.5a2.036,2.036,0,0,1,2.085,2.182Z" transform="translate(-95.555 -71.916)" fill="#407bff" opacity="0.1"/>
    <path id="Caminho_867" data-name="Caminho 867" d="M276.22,127.3a1.768,1.768,0,0,1-1.743,1.634,1.512,1.512,0,0,1-1.536-1.634,1.755,1.755,0,0,1,1.743-1.646,1.524,1.524,0,0,1,1.536,1.646Z" transform="translate(-98.368 -72.196)" fill="#fff" opacity="0.4"/>
    <path id="Caminho_868" data-name="Caminho 868" d="M249.947,100.876c-6.668,7.631-10.52,31.025-5.583,42.533s-52.346,23.028-5.083,41.716,85.065-2.974,71.388-22.345,1.475-51.627-14.36-59.733C282,95.646,263.308,85.577,249.947,100.876Z" transform="translate(-109.862 -79.373)" fill="#263238"/>
    <path id="Caminho_869" data-name="Caminho 869" d="M245.423,177.58c-2.5,8.533-5.157,17.067-7.912,25.6s-5.62,16.957-8.655,25.442L227.7,231.8l-.585,1.609-.183.475-.293.719c-.183.451-.463.963-.707,1.438a13.41,13.41,0,0,1-5.132,5.193,14.044,14.044,0,0,1-6.388,1.682,23.577,23.577,0,0,1-9.131-1.792,52.892,52.892,0,0,1-6.863-3.389,109.19,109.19,0,0,1-21.8-17.627l5.254-6.193c1.768,1.122,3.657,2.328,5.486,3.474s3.742,2.219,5.6,3.316a113.7,113.7,0,0,0,11.227,5.742,38.083,38.083,0,0,0,5.413,1.914,9.862,9.862,0,0,0,3.974.463c.341,0,.28-.2,0-.085a2.511,2.511,0,0,0-.6.39v-.073a.159.159,0,0,0,0-.073l.1-.3.463-1.573.939-3.17,7.448-25.6q3.8-12.812,7.826-25.6Z" transform="translate(-119.466 -61.881)" fill="#b65b52"/>
    <path id="Caminho_870" data-name="Caminho 870" d="M183.165,207.3,169,202l5.62,14.958s10,1.451,13.873-3.816l-3.157-4.218A4.876,4.876,0,0,0,183.165,207.3Z" transform="translate(-121.135 -55.472)" fill="#b55b52"/>
    <path id="Caminho_871" data-name="Caminho 871" d="M158.75,206.406l5.388,12.276,12.788-1.694-5.632-14.958Z" transform="translate(-123.381 -55.465)" fill="#b55b52"/>
    <path id="Caminho_872" data-name="Caminho 872" d="M226.551,158.794c-6.485,1.646-10.971,28.306-10.971,28.306l17.859,12.191s17.067-26.892,12.13-34.024C240.327,157.806,236,156.38,226.551,158.794Z" transform="translate(-110.932 -65.172)" fill="#407bff"/>
    <path id="Caminho_873" data-name="Caminho 873" d="M226.551,158.794c-6.485,1.646-10.971,28.306-10.971,28.306l17.859,12.191s17.067-26.892,12.13-34.024C240.327,157.806,236,156.38,226.551,158.794Z" transform="translate(-110.932 -65.172)" fill="#fff" opacity="0.5"/>
    <path id="Caminho_874" data-name="Caminho 874" d="M224.713,166.55l13.861,3.206,1.329,13.556a155.693,155.693,0,0,1-7.765,13.995L221.3,189.992C221.775,183.714,222.946,170.756,224.713,166.55Z" transform="translate(-109.679 -63.237)" opacity="0.2"/>
    <path id="Caminho_875" data-name="Caminho 875" d="M224.917,159.418s-7.5,2.633,7.509,94.867h63.83c-1.073-25.99-1.1-42.008,11.313-95.33a188.691,188.691,0,0,0-27.1-3.56c-10.74-.524-19.5-.866-28.989,0C239.033,156.529,224.917,159.418,224.917,159.418Z" transform="translate(-109.297 -65.796)" fill="#407bff"/>
    <path id="Caminho_876" data-name="Caminho 876" d="M224.917,159.418s-7.5,2.633,7.509,94.867h63.83c-1.073-25.99-1.1-42.008,11.313-95.33a188.691,188.691,0,0,0-27.1-3.56c-10.74-.524-19.5-.866-28.989,0C239.033,156.529,224.917,159.418,224.917,159.418Z" transform="translate(-109.297 -65.796)" fill="#fff" opacity="0.5"/>
    <path id="Caminho_877" data-name="Caminho 877" d="M280.085,178.53l8.241,7.01c-1.755,9.326-2.938,17.067-3.657,24C283.1,202.618,279.17,183.833,280.085,178.53Z" transform="translate(-96.832 -60.613)" opacity="0.2"/>
    <path id="Caminho_878" data-name="Caminho 878" d="M272.972,128.52c-1.829,9.326-3.657,26.417,2.877,32.646,0,0-6.1,13.97-22.248,13.97s-6.741-13.97-6.741-13.97c10.4-2.438,10.13-10.2,8.326-17.457Z" transform="translate(-104.677 -71.568)" fill="#b55b52"/>
    <path id="Caminho_879" data-name="Caminho 879" d="M274.112,152.577c-1.536,3.121-6.485,10.228-20.309,12.751a1.475,1.475,0,0,1-1.109-.207c-2.584-1.816-4.194-5.62-3.06-10.045a1.512,1.512,0,0,0-2.024-1.8,19.287,19.287,0,0,0-3.048,1.609,1.475,1.475,0,0,0-.5.561c-1.012,1.9-5.108,11.215,7.253,16.945a1.414,1.414,0,0,0,.622.146c7.314.158,20.1-1.28,28.184-15.848a1.536,1.536,0,0,0-.134-1.682,15.457,15.457,0,0,0-3.742-3.011,1.5,1.5,0,0,0-2.133.585Z" transform="translate(-105.013 -66.477)" fill="#fafafa"/>
    <path id="Caminho_880" data-name="Caminho 880" d="M274.408,184.844l-16.457-.488A1.219,1.219,0,0,1,256.731,183l.158-2.024a1.414,1.414,0,0,1,1.39-1.28l16.457.475a1.219,1.219,0,0,1,1.219,1.353l-.159,2.036a1.414,1.414,0,0,1-1.39,1.28Z" transform="translate(-101.919 -60.357)" fill="#fafafa"/>
    <path id="Caminho_881" data-name="Caminho 881" d="M263.733,133.61,253.2,142.619a29.38,29.38,0,0,1,.9,5.144c3.962-.573,9.423-4.876,9.85-9.094a13.946,13.946,0,0,0-.219-5.059Z" transform="translate(-102.691 -70.453)" opacity="0.2"/>
    <path id="Caminho_882" data-name="Caminho 882" d="M286.148,118.656c-2.938,15.311-3.852,21.858-12.678,28.782-13.275,10.411-31.452,3.438-33.134-12.447-1.524-14.3,3.535-36.949,19.5-41.143a21.272,21.272,0,0,1,26.307,24.808Z" transform="translate(-105.566 -79.319)" fill="#b55b52"/>
    <path id="Caminho_883" data-name="Caminho 883" d="M270.923,106.49c-1.9,9.594-2.353,22.345,6.485,22.345s15.677-14.958,8.095-26.685S272.032,100.834,270.923,106.49Z" transform="translate(-99.056 -78.514)" fill="#263238"/>
    <path id="Caminho_884" data-name="Caminho 884" d="M292.862,110.959c0,10.423-13.141,5.266-18.956.768s-6.1-4-16.872-4.023-12.934-.744-16.116-5.888-2.889-8.533,4.279-7.448,1.122-6.229,6.485-10.3,11.7-3.035,19.017,6.229S292.862,92.869,292.862,110.959Z" transform="translate(-105.806 -81.801)" fill="#263238"/>
    <ellipse id="Elipse_10" data-name="Elipse 10" cx="8.899" cy="5.766" rx="8.899" ry="5.766" transform="translate(169.616 58.227) rotate(-73.66)" fill="#fff"/>
    <path id="Caminho_885" data-name="Caminho 885" d="M261.529,144.234a21.053,21.053,0,0,1-8.229-1.682.451.451,0,0,1-.244-.6.475.475,0,0,1,.61-.244,19.931,19.931,0,0,0,15.519.085,19.431,19.431,0,0,0,10.679-10.667c3.657-10.472,7.388-23.552,3.072-31.7a12.617,12.617,0,0,0-8.411-6.254.454.454,0,1,1,.232-.878,13.41,13.41,0,0,1,8.984,6.7c4.486,8.424.744,21.748-3.023,32.415A20.285,20.285,0,0,1,269.538,142.6,20.871,20.871,0,0,1,261.529,144.234Z" transform="translate(-102.731 -79.504)" fill="#fff"/>
    <path id="Caminho_886" data-name="Caminho 886" d="M281.033,126.67c-1.085,3.657-3.572,6.242-5.559,5.656s-2.718-4.059-1.634-7.765,3.572-6.242,5.559-5.656S282.118,122.965,281.033,126.67Z" transform="translate(-98.28 -73.692)" fill="#407bff" opacity="0.6"/>
    <rect id="Retângulo_414" data-name="Retângulo 414" width="7.96" height="3.377" rx="1.27" transform="translate(145.538 59.81) rotate(10.92)" fill="#fff"/>
    <path id="Caminho_887" data-name="Caminho 887" d="M250.16,115.09s-2.828,5.144-5.51,7.448c1.451,1.768,4.376,1.426,4.376,1.426Z" transform="translate(-104.564 -74.509)" fill="#a02724"/>
    <path id="Caminho_888" data-name="Caminho 888" d="M251.4,128.234a.2.2,0,0,0,.11,0,10.789,10.789,0,0,0,7.68-2.341.233.233,0,0,0-.3-.354,10.569,10.569,0,0,1-7.314,2.231.232.232,0,0,0-.268.207.219.219,0,0,0,.1.256Z" transform="translate(-103.109 -72.233)" fill="#263238"/>
    <path id="Caminho_889" data-name="Caminho 889" d="M263.8,110.89a.5.5,0,0,0,.451,0,.488.488,0,0,0,.146-.658,7.119,7.119,0,0,0-5.547-3.462.488.488,0,0,0-.488.463.475.475,0,0,0,.463.488,6.1,6.1,0,0,1,4.767,3.011.427.427,0,0,0,.207.158Z" transform="translate(-101.561 -76.332)" fill="#263238"/>
    <path id="Caminho_890" data-name="Caminho 890" d="M257.633,115.728c-.207,1.219-1.048,2.158-1.877,2.024s-1.3-1.28-1.1-2.536,1.061-2.158,1.877-2.024S257.853,114.472,257.633,115.728Z" transform="translate(-102.382 -74.928)" fill="#263238"/>
    <path id="Caminho_891" data-name="Caminho 891" d="M245.973,113.736c-.207,1.219-1.048,2.17-1.877,2.024s-1.3-1.219-1.1-2.523,1.061-2.17,1.877-2.024S246.193,112.481,245.973,113.736Z" transform="translate(-104.936 -75.362)" fill="#263238"/>
    <path id="Caminho_892" data-name="Caminho 892" d="M245.337,111.558l-2.877-1.378S243.606,112.8,245.337,111.558Z" transform="translate(-105.044 -75.585)" fill="#263238"/>
    <path id="Caminho_893" data-name="Caminho 893" d="M257,113.55l-2.877-1.39S255.266,114.793,257,113.55Z" transform="translate(-102.49 -75.151)" fill="#263238"/>
    <path id="Caminho_894" data-name="Caminho 894" d="M241.52,106.748a.475.475,0,0,0,.488,0,6.1,6.1,0,0,1,5.51-1.219.475.475,0,1,0,.317-.89,7.07,7.07,0,0,0-6.4,1.317.451.451,0,0,0-.085.658.646.646,0,0,0,.171.134Z" transform="translate(-105.31 -76.858)" fill="#263238"/>
    <path id="Caminho_895" data-name="Caminho 895" d="M228.75,251.963s-.171-8.728,2.438-15.543h63.817s5.742,9.265,7.229,15.543Z" transform="translate(-108.047 -47.932)" fill="#407bff"/>
    <path id="Caminho_896" data-name="Caminho 896" d="M295.9,233.427l.5,5.717c.232.439-.293.89-1.036.89H230.75c-.573,0-1.048-.28-1.085-.634l-.585-5.717c0-.4.463-.731,1.1-.731h64.61A1.219,1.219,0,0,1,295.9,233.427Z" transform="translate(-107.975 -48.693)" fill="#407bff"/>
    <path id="Caminho_897" data-name="Caminho 897" d="M295.9,233.427l.5,5.717c.232.439-.293.89-1.036.89H230.75c-.573,0-1.048-.28-1.085-.634l-.585-5.717c0-.4.463-.731,1.1-.731h64.61A1.219,1.219,0,0,1,295.9,233.427Z" transform="translate(-107.975 -48.693)" fill="#fafafa" opacity="0.3"/>
    <path id="Caminho_898" data-name="Caminho 898" d="M277.032,240.746h1.731c.354,0,.61-.171.585-.39l-.8-7.424c0-.219-.329-.4-.67-.4h-1.768c-.354,0-.61.183-.585.4l.8,7.424A.716.716,0,0,0,277.032,240.746Z" transform="translate(-97.802 -48.784)" fill="#407bff"/>
    <path id="Caminho_899" data-name="Caminho 899" d="M234.738,240.746h1.731c.341,0,.61-.171.585-.39l-.817-7.424c0-.219-.317-.4-.67-.4h-1.731c-.341,0-.61.183-.585.4l.817,7.424C234.091,240.576,234.4,240.746,234.738,240.746Z" transform="translate(-107.062 -48.784)" fill="#407bff"/>
    <path id="Caminho_900" data-name="Caminho 900" d="M255.9,240.746h1.682c.341,0,.61-.171.585-.39l-.817-7.424c0-.219-.329-.4-.67-.4h-1.731c-.341,0-.61.183-.585.4l.817,7.424A.735.735,0,0,0,255.9,240.746Z" transform="translate(-102.437 -48.784)" fill="#407bff"/>
    <path id="Caminho_901" data-name="Caminho 901" d="M299.688,173c2.8,9.106,5.51,18.286,8.082,27.441l3.889,13.739,1.938,6.827.488,1.682.244.841.061.2h0l-.2-.3a4.877,4.877,0,0,0-1.122-1.146,6.1,6.1,0,0,0-3.267-1.158,5.327,5.327,0,0,0-2.584.512c-.878.475-.792.585-.719.5a4.046,4.046,0,0,0,.561-.6,21.06,21.06,0,0,0,1.585-2.267c1.073-1.743,2.133-3.718,3.133-5.742,2.072-4.059,3.938-8.351,5.827-12.654s3.657-8.692,5.486-13.08,3.572-8.826,5.376-13.2l7.79,2.328c-2.024,9.509-4.389,18.834-7.314,28.148-1.438,4.669-3.035,9.289-4.876,13.97-.951,2.341-1.963,4.681-3.218,7.107a36.152,36.152,0,0,1-2.243,3.8,18.986,18.986,0,0,1-1.707,2.17,11.533,11.533,0,0,1-3.535,2.694,9.18,9.18,0,0,1-4.315.9,8.887,8.887,0,0,1-4.876-1.792,10.069,10.069,0,0,1-2.3-2.438,13.191,13.191,0,0,1-1.036-1.877c-.11-.268-.232-.549-.317-.792l-.232-.6-.317-.866-.634-1.719c-.829-2.292-1.67-4.559-2.438-6.839-1.56-4.571-3.121-9.106-4.584-13.678q-4.486-13.7-8.363-27.538Z" transform="translate(-95.955 -61.824)" fill="#b65b52"/>
    <path id="Caminho_902" data-name="Caminho 902" d="M295.526,158.283c6.4,1.95,16.189,27.051,16.189,27.051L286.907,203.12s-11.154-21.455-8.472-29.72C281.239,164.732,288.236,156.065,295.526,158.283Z" transform="translate(-97.255 -65.125)" fill="#407bff"/>
    <path id="Caminho_903" data-name="Caminho 903" d="M295.526,158.283c6.4,1.95,16.189,27.051,16.189,27.051L286.907,203.12s-11.154-21.455-8.472-29.72C281.239,164.732,288.236,156.065,295.526,158.283Z" transform="translate(-97.255 -65.125)" fill="#fff" opacity="0.5"/>
    <path id="Caminho_904" data-name="Caminho 904" d="M321.311,179.794l-3.4-14.994,14.141,7.461s.171,10.082-5.534,13.275Z" transform="translate(-88.517 -63.62)" fill="#b55b52"/>
    <path id="Caminho_905" data-name="Caminho 905" d="M323.835,155.04l9.021,6.388-.8,12.971-14.141-7.461Z" transform="translate(-88.517 -65.758)" fill="#b55b52"/>
  </g>
  <g id="Chat" transform="translate(121.905 33.194)">
    <path id="Caminho_906" data-name="Caminho 906" d="M118.286,93.13h98.743a13.629,13.629,0,0,1,13.726,14.629L228,152.461A15.848,15.848,0,0,1,212.47,167.09H201.035l4.669,15.348-22.3-15.348H113.763a13.629,13.629,0,0,1-13.727-14.629l2.731-44.7A15.848,15.848,0,0,1,118.286,93.13Z" transform="translate(-100 -12.794)" fill="#407bff"/>
    <path id="Caminho_907" data-name="Caminho 907" d="M204.051,113.33h-83.5a2.56,2.56,0,0,1-2.584-2.755h0a2.974,2.974,0,0,1,2.914-2.755h83.517a2.572,2.572,0,0,1,2.584,2.755h0a2.974,2.974,0,0,1-2.926,2.755Z" transform="translate(-96.067 -9.576)" fill="#fff"/>
    <path id="Caminho_908" data-name="Caminho 908" d="M154.761,126.72H119.726a2.572,2.572,0,0,1-2.584-2.755h0a2.962,2.962,0,0,1,2.926-2.755h35.072a2.572,2.572,0,0,1,2.6,2.755h0a2.987,2.987,0,0,1-2.974,2.755Z" transform="translate(-96.246 -6.643)" fill="#fff"/>
    <path id="Caminho_909" data-name="Caminho 909" d="M184.966,140.1h-66.06a2.56,2.56,0,0,1-2.584-2.755h0a2.974,2.974,0,0,1,2.926-2.755h66.06a2.572,2.572,0,0,1,2.584,2.755h0A2.974,2.974,0,0,1,184.966,140.1Z" transform="translate(-96.426 -3.712)" fill="#fff"/>
    <path id="Caminho_910" data-name="Caminho 910" d="M172.057,126.72H158.246a2.572,2.572,0,0,1-2.584-2.755h0a2.974,2.974,0,0,1,2.926-2.755h13.8a2.56,2.56,0,0,1,2.584,2.755h0A2.974,2.974,0,0,1,172.057,126.72Z" transform="translate(-87.809 -6.643)" fill="#fff"/>
    <path id="Caminho_911" data-name="Caminho 911" d="M240.016,27.23H186.183A12.312,12.312,0,0,0,174.1,38.616l-2.1,34.78A10.618,10.618,0,0,0,182.7,84.781h8.814l-5.1,11.935,18.847-11.935h31.232A12.3,12.3,0,0,0,248.574,73.4l2.133-34.78A10.618,10.618,0,0,0,240.016,27.23Z" transform="translate(-84.233 -27.23)" fill="#407bff"/>
    <g id="Grupo_13" data-name="Grupo 13" transform="translate(87.744)">
      <path id="Caminho_912" data-name="Caminho 912" d="M240.016,27.23H186.183A12.312,12.312,0,0,0,174.1,38.616l-2.1,34.78A10.618,10.618,0,0,0,182.7,84.781h8.814l-5.1,11.935,18.847-11.935h31.232A12.3,12.3,0,0,0,248.574,73.4l2.133-34.78A10.618,10.618,0,0,0,240.016,27.23Z" transform="translate(-171.977 -27.23)" fill="#cc1104"/>
    </g>
    <path id="Caminho_913" data-name="Caminho 913" d="M209.058,59.917a3.523,3.523,0,0,1-3.413,2.694h-3.182c0-.9.073-1.451.085-1.646a11.386,11.386,0,0,1,1.317-5.035,16.847,16.847,0,0,1,4.315-4.45,33.585,33.585,0,0,0,3.828-3.23,4.584,4.584,0,0,0,1.073-2.658,4.242,4.242,0,0,0-1.4-3.474,5.961,5.961,0,0,0-4.267-1.438,6.985,6.985,0,0,0-4.51,1.5,7.315,7.315,0,0,0-1.829,2.28,3.657,3.657,0,0,1-3.535,1.987h0a3.109,3.109,0,0,1-2.243-4.73,12.349,12.349,0,0,1,2.792-3.23,14.031,14.031,0,0,1,9.35-3.084c3.986,0,7.083,1.036,9.314,3.121a8.9,8.9,0,0,1,3.084,7.314,8.533,8.533,0,0,1-1.56,4.34,31.367,31.367,0,0,1-5.888,5.571,11.593,11.593,0,0,0-2.9,2.938A4.743,4.743,0,0,0,209.058,59.917ZM202.1,68.67v-.39A3.523,3.523,0,0,1,205.571,65h.439a3.06,3.06,0,0,1,3.084,3.279v.39a3.523,3.523,0,0,1-3.474,3.267h-.39A3.048,3.048,0,0,1,202.1,68.67Z" transform="translate(-79.229 -25.442)" fill="#fff"/>
  </g>
</svg>
