<svg xmlns="http://www.w3.org/2000/svg" width="60" height="60" viewBox="0 0 60 60">
  <g id="Online_service" data-name="Online service" transform="translate(-2 -2)">
    <path id="Caminho_949" data-name="Caminho 949" d="M32,21A11,11,0,1,0,43,32,11,11,0,0,0,32,21ZM25.28,37.97A9,9,0,0,1,23.06,33H25.7a17.551,17.551,0,0,0,.7,4.21A10.5,10.5,0,0,0,25.28,37.97ZM25.7,31H23.06a9,9,0,0,1,2.22-4.97,10.5,10.5,0,0,0,1.12.76A17.552,17.552,0,0,0,25.7,31Zm1.1,8.33c.11-.07.22-.15.33-.23.11.23.23.46.35.67-.23-.14-.46-.28-.68-.44Zm.33-14.43c-.11-.08-.22-.16-.33-.23.22-.16.45-.3.68-.44-.12.21-.24.44-.35.67ZM31,40.71a5.588,5.588,0,0,1-2.07-2.5A9.158,9.158,0,0,1,31,37.73Zm0-5a11.367,11.367,0,0,0-2.77.63A15.676,15.676,0,0,1,27.7,33H31ZM31,31H27.7a15.676,15.676,0,0,1,.53-3.34,11.367,11.367,0,0,0,2.77.63Zm0-4.73a9.158,9.158,0,0,1-2.07-.48A5.588,5.588,0,0,1,31,23.29Zm7.72-.24A9,9,0,0,1,40.94,31H38.3a17.551,17.551,0,0,0-.7-4.21,10.5,10.5,0,0,0,1.12-.76ZM33,23.29a5.588,5.588,0,0,1,2.07,2.5,9.158,9.158,0,0,1-2.07.48Zm0,17.42V37.73a9.158,9.158,0,0,1,2.07.48A5.588,5.588,0,0,1,33,40.71Zm2.77-4.37A11.367,11.367,0,0,0,33,35.71V33h3.3a15.676,15.676,0,0,1-.53,3.34ZM33,31V28.29a11.367,11.367,0,0,0,2.77-.63A15.676,15.676,0,0,1,36.3,31Zm3.52,8.77c.12-.21.24-.44.35-.67.11.08.22.16.33.23C36.98,39.49,36.75,39.63,36.52,39.77Zm.35-14.87c-.11-.23-.23-.46-.35-.67.23.14.46.28.68.44-.11.07-.22.15-.33.23Zm1.85,13.07a10.5,10.5,0,0,0-1.12-.76A17.551,17.551,0,0,0,38.3,33h2.64a9,9,0,0,1-2.22,4.97Z" fill="#2e3743"/>
    <path id="Caminho_950" data-name="Caminho 950" d="M59,41H45a3.009,3.009,0,0,0-3,3V54a3.009,3.009,0,0,0,3,3h3.85l-.74,3.81a.993.993,0,0,0,.2.83,1.013,1.013,0,0,0,.78.36h5.82a1.013,1.013,0,0,0,.78-.36.993.993,0,0,0,.2-.83L55.15,57H59a3.009,3.009,0,0,0,3-3V44a3.009,3.009,0,0,0-3-3ZM50.3,60l.59-3h2.22l.59,3ZM60,54a1,1,0,0,1-1,1H45a1,1,0,0,1-1-1V53H60Zm0-3H44V44a1,1,0,0,1,1-1H59a1,1,0,0,1,1,1Z" fill="#2e3743"/>
    <path id="Caminho_951" data-name="Caminho 951" d="M19,2H5A3.009,3.009,0,0,0,2,5V15a3.009,3.009,0,0,0,3,3H8.85l-.74,3.81a.993.993,0,0,0,.2.83,1.013,1.013,0,0,0,.78.36h5.82a1.013,1.013,0,0,0,.78-.36.993.993,0,0,0,.2-.83L15.15,18H19a3.009,3.009,0,0,0,3-3V5a3.009,3.009,0,0,0-3-3ZM10.3,21l.59-3h2.22l.59,3ZM20,15a1,1,0,0,1-1,1H5a1,1,0,0,1-1-1V14H20Zm0-3H4V5A1,1,0,0,1,5,4H19a1,1,0,0,1,1,1Z" fill="#2e3743"/>
    <path id="Caminho_952" data-name="Caminho 952" d="M19,29H14a1,1,0,0,1-1-1V25H11v3a3,3,0,0,0,3,3h5Z" fill="#2e3743"/>
    <path id="Caminho_953" data-name="Caminho 953" d="M11,36v6h2V36a1,1,0,0,1,1-1h5V33H14a3,3,0,0,0-3,3Z" fill="#2e3743"/>
    <path id="Caminho_954" data-name="Caminho 954" d="M53,22H51v6a1,1,0,0,1-1,1H44v2h6a3,3,0,0,0,3-3Z" fill="#2e3743"/>
    <path id="Caminho_955" data-name="Caminho 955" d="M53,39V36a3,3,0,0,0-3-3H44v2h6a1,1,0,0,1,1,1v3Z" fill="#2e3743"/>
    <path id="Caminho_956" data-name="Caminho 956" d="M61.79,14.38A1,1,0,0,0,61,14H60V3a1,1,0,0,0-1-1H39a1,1,0,0,0-1,1V14H37a1,1,0,0,0-.79.38,1.022,1.022,0,0,0-.18.86l1,4A1,1,0,0,0,38,20H60a1,1,0,0,0,.97-.76l1-4a1.022,1.022,0,0,0-.18-.86ZM40,4H58V14H51a1,1,0,0,0-1,1H48a1,1,0,0,0-1-1H40ZM59.22,18H38.78l-.5-2H46a1,1,0,0,0,1,1h4a1,1,0,0,0,1-1h7.72Z" fill="#2e3743"/>
    <path id="Caminho_957" data-name="Caminho 957" d="M27.79,56.38A1,1,0,0,0,27,56H26V45a1,1,0,0,0-1-1H5a1,1,0,0,0-1,1V56H3a1,1,0,0,0-.79.38,1.022,1.022,0,0,0-.18.86l1,4A1,1,0,0,0,4,62H26a1,1,0,0,0,.97-.76l1-4a1.022,1.022,0,0,0-.18-.86ZM6,46H24V56H17a1,1,0,0,0-1,1H14a1,1,0,0,0-1-1H6ZM25.22,60H4.78l-.5-2H12a1,1,0,0,0,1,1h4a1,1,0,0,0,1-1h7.72Z" fill="#2e3743"/>
  </g>
</svg>
