<svg xmlns="http://www.w3.org/2000/svg" width="60.015" height="60" viewBox="0 0 60.015 60">
  <g id="Performance" transform="translate(-1.985 -2)">
    <path id="Caminho_938" data-name="Caminho 938" d="M58,54a4,4,0,0,0-3.86,3H52a1,1,0,0,1-1-1V39h3a8,8,0,0,0,0-16h-.88A13.991,13.991,0,1,0,27.59,12.04,11,11,0,0,0,9.42,23.02,8,8,0,0,0,10,39h3V56a1,1,0,0,1-1,1H9.86a4,4,0,1,0,0,2H12a3.009,3.009,0,0,0,3-3V39h4V59a3.009,3.009,0,0,0,3,3H42a3.009,3.009,0,0,0,3-3V39h4V56a3.009,3.009,0,0,0,3,3h2.14A3.994,3.994,0,1,0,58,54ZM6,60a2,2,0,1,1,2-2A2,2,0,0,1,6,60Zm37-1a1,1,0,0,1-1,1H22a1,1,0,0,1-1-1V21a1,1,0,0,1,1-1h1v1a3.009,3.009,0,0,0,3,3H38a3.009,3.009,0,0,0,3-3V20h1a1,1,0,0,1,1,1ZM25,21V20H39v1a1,1,0,0,1-1,1H26A1,1,0,0,1,25,21ZM45,37V21a3.009,3.009,0,0,0-3-3H22a3.009,3.009,0,0,0-3,3V37H10a6,6,0,1,1,0-12h.84a1.013,1.013,0,0,0,.84-.45,1.034,1.034,0,0,0,.08-.95A8.747,8.747,0,0,1,11,20a9,9,0,0,1,16.33-5.22,1,1,0,0,0,1.8-.44A11.992,11.992,0,0,1,53,16a11.818,11.818,0,0,1-2.56,7.38A1,1,0,0,0,51.23,25H54a6,6,0,1,1,0,12ZM58,60a2,2,0,1,1,2-2A2,2,0,0,1,58,60Z" fill="#2e3743"/>
    <path id="Caminho_939" data-name="Caminho 939" d="M38.275,34.561l1.514-1.947-1.578-1.228-1.517,1.95A8.981,8.981,0,0,0,23,41h2a6.989,6.989,0,0,1,10.46-6.077l-4.249,5.463,1.578,1.228,4.248-5.462A6.967,6.967,0,0,1,39,41h2a8.968,8.968,0,0,0-2.726-6.44Z" fill="#2e3743"/>
    <path id="Caminho_940" data-name="Caminho 940" d="M34,47H30a1,1,0,0,0-1,1v4a1,1,0,0,0,1,1h4a1,1,0,0,0,1-1V48A1,1,0,0,0,34,47Zm-1,4H31V49h2Z" fill="#2e3743"/>
    <rect id="Ret창ngulo_417" data-name="Ret창ngulo 417" width="4" height="2" transform="translate(37 49)" fill="#2e3743"/>
    <rect id="Ret창ngulo_418" data-name="Ret창ngulo 418" width="4" height="2" transform="translate(23 49)" fill="#2e3743"/>
  </g>
</svg>
