<svg xmlns="http://www.w3.org/2000/svg" width="52" height="52.167" viewBox="0 0 52 52.167">
  <g id="_023-paper_plane" data-name="023-paper plane" transform="translate(-2.115 -1.997)">
    <path id="Caminho_830" data-name="Caminho 830" d="M66.345,35.259a.745.745,0,0,1-.74-.844l.3-2.243a.745.745,0,0,1,1.477.2l-.3,2.243a.745.745,0,0,1-.737.647Z" transform="translate(-16.174 -7.527)" fill="#2e3743"/>
    <path id="Caminho_831" data-name="Caminho 831" d="M56.2,59.4a.741.741,0,0,1-.325-.075l-19.45-9.42a.745.745,0,1,1,.65-1.341l18.52,8.969.8-6.06a.745.745,0,0,1,1.486.079.809.809,0,0,1-.007.1l-.932,7.094a.745.745,0,0,1-.739.648Z" transform="translate(-8.633 -11.846)" fill="#2e3743"/>
    <path id="Caminho_832" data-name="Caminho 832" d="M65.036,45.271a.7.7,0,0,1-.1-.007.745.745,0,0,1-.642-.835l.283-2.191a.745.745,0,0,1,1.479.191l-.283,2.191a.745.745,0,0,1-.74.651Z" transform="translate(-15.841 -10.087)" fill="#2e3743"/>
    <path id="Caminho_833" data-name="Caminho 833" d="M19.691,34.357a.734.734,0,0,1-.224-.036l-16.834-5.4a.745.745,0,0,1-.108-1.375L53.031,2.08a.745.745,0,0,1,1.075.763L51.9,19.573a.745.745,0,0,1-1.478-.2L52.444,4.046,4.817,28.062l15.1,4.844a.745.745,0,0,1-.228,1.451Z" transform="translate(0 -0.001)" fill="#2e3743"/>
    <path id="Caminho_834" data-name="Caminho 834" d="M29.924,54.157h-.007a.745.745,0,0,1-.72-.581l-4.478-19.8a.745.745,0,0,1,.224-.714L58.619,2.2a.745.745,0,0,1,1.107.988L34.555,37.71,30.648,53.59a.745.745,0,0,1-.724.567ZM26.265,33.868l3.687,16.3L33.14,37.212a.739.739,0,0,1,.121-.261L54.119,8.334Z" transform="translate(-5.754 0)" fill="#2e3743"/>
    <path id="Caminho_835" data-name="Caminho 835" d="M31.458,67.084a.745.745,0,0,1-.578-1.216L41.388,52.979a.746.746,0,1,1,1.156.942L32.036,66.813a.745.745,0,0,1-.578.271Z" transform="translate(-7.286 -12.919)" fill="#2e3743"/>
  </g>
</svg>
