<svg xmlns="http://www.w3.org/2000/svg" width="70.01" height="63.721" viewBox="0 0 70.01 63.721">
  <g id="_032-rate" data-name="032-rate" transform="translate(-1.998 -5.64)">
    <path id="Caminho_821" data-name="Caminho 821" d="M55.46,18.6a1,1,0,0,1-.917-.6,21.991,21.991,0,0,0-1.526-2.362,1,1,0,1,1,1.607-1.19,23.736,23.736,0,0,1,1.712,2.663A1,1,0,0,1,55.46,18.6Z" fill="#2e3743"/>
    <path id="Caminho_822" data-name="Caminho 822" d="M37,49.64a22,22,0,1,1,0-44c.444,0,.888.011,1.332.043a1,1,0,0,1-.062,2c-.478-.031-.874-.04-1.27-.04a20,20,0,1,0,20,20,18.173,18.173,0,0,0-.151-2.4,1,1,0,1,1,1.982-.264A20.127,20.127,0,0,1,59,27.64,22,22,0,0,1,37,49.64Z" fill="#2e3743"/>
    <path id="Caminho_823" data-name="Caminho 823" d="M48.739,11.23a.994.994,0,0,1-.558-.171A20.689,20.689,0,0,0,45.7,9.619a1,1,0,0,1,.879-1.8A22.815,22.815,0,0,1,49.3,9.4a1,1,0,0,1-.561,1.829Z" fill="#2e3743"/>
    <path id="Caminho_824" data-name="Caminho 824" d="M54.221,40.66a1,1,0,0,1-.825-.432,19.945,19.945,0,0,0-32.792,0,1,1,0,0,1-1.647-1.136,21.947,21.947,0,0,1,36.086,0,1,1,0,0,1-.822,1.568Z" transform="translate(0 0.464)" fill="#2e3743"/>
    <path id="Caminho_825" data-name="Caminho 825" d="M37,31.64a8.25,8.25,0,1,1,8.25-8.25A8.25,8.25,0,0,1,37,31.64Zm0-14.5a6.25,6.25,0,1,0,6.25,6.25A6.25,6.25,0,0,0,37,17.14Z" transform="translate(0 0.206)" fill="#2e3743"/>
    <path id="Caminho_826" data-name="Caminho 826" d="M61.222,68.36a1,1,0,0,1-.986-1.169l.624-3.64-2.645-2.578a1,1,0,0,1,.555-1.706l3.655-.532,1.636-3.312a1.006,1.006,0,0,1,1.8,0L67.5,58.735l3.656.532a1,1,0,0,1,.554,1.706L69.06,63.551l.624,3.64a1,1,0,0,1-1.451,1.055l-3.269-1.719-3.27,1.719a1.008,1.008,0,0,1-.472.114Zm-.16-7.4,1.571,1.53a1,1,0,0,1,.287.886l-.37,2.162,1.942-1.021a1,1,0,0,1,.931,0l1.94,1.02-.37-2.161a1,1,0,0,1,.287-.886l1.572-1.53-2.171-.316a1,1,0,0,1-.753-.547l-.971-1.967-.972,1.967a1,1,0,0,1-.753.547Z" transform="translate(0 1)" fill="#2e3743"/>
    <path id="Caminho_827" data-name="Caminho 827" d="M42.584,68.36a1,1,0,0,1-.985-1.169l.624-3.64-2.646-2.578a1,1,0,0,1,.555-1.706l3.655-.532,1.636-3.312a1.006,1.006,0,0,1,1.8,0l1.635,3.312,3.655.532a1,1,0,0,1,.555,1.706l-2.646,2.578.624,3.64A1,1,0,0,1,49.6,68.246l-3.269-1.719-3.27,1.719a1.008,1.008,0,0,1-.472.114Zm-.16-7.4L44,62.485a1,1,0,0,1,.287.886l-.37,2.162,1.942-1.021a1,1,0,0,1,.931,0l1.941,1.02-.371-2.161a1,1,0,0,1,.288-.886l1.571-1.53-2.171-.316a1,1,0,0,1-.753-.547l-.971-1.967-.971,1.967a1,1,0,0,1-.753.547Z" transform="translate(0 1)" fill="#2e3743"/>
    <path id="Caminho_828" data-name="Caminho 828" d="M31.416,68.36a1.008,1.008,0,0,1-.465-.114l-3.27-1.719-3.269,1.719a1,1,0,0,1-1.451-1.055l.624-3.64-2.646-2.578a1,1,0,0,1,.555-1.706l3.655-.532,1.635-3.312a1.041,1.041,0,0,1,1.793,0l1.636,3.312,3.655.532a1,1,0,0,1,.555,1.706l-2.646,2.578.624,3.64a1,1,0,0,1-.985,1.169ZM27.681,64.4a.994.994,0,0,1,.465.115l1.942,1.021-.37-2.162A1,1,0,0,1,30,62.488l1.571-1.53L29.4,60.642a1,1,0,0,1-.753-.547l-.971-1.967L26.71,60.1a1,1,0,0,1-.753.547l-2.171.316,1.571,1.53a1,1,0,0,1,.288.886l-.371,2.161,1.941-1.02a1,1,0,0,1,.466-.115Z" transform="translate(0 1)" fill="#2e3743"/>
    <path id="Caminho_829" data-name="Caminho 829" d="M12.778,68.36a1.008,1.008,0,0,1-.465-.114l-3.27-1.719L5.774,68.246a1,1,0,0,1-1.451-1.055l.624-3.64L2.3,60.973a1,1,0,0,1,.554-1.706l3.656-.532,1.634-3.312a1.041,1.041,0,0,1,1.793,0l1.636,3.312,3.655.532a1,1,0,0,1,.555,1.706L13.14,63.551l.624,3.64a1,1,0,0,1-.986,1.169ZM9.043,64.4a.994.994,0,0,1,.465.115l1.942,1.021-.37-2.162a1,1,0,0,1,.287-.886l1.571-1.53-2.17-.316a1,1,0,0,1-.753-.547l-.972-1.967L8.072,60.1a1,1,0,0,1-.753.547l-2.171.316,1.572,1.53a1,1,0,0,1,.287.886l-.37,2.161,1.94-1.02A1,1,0,0,1,9.043,64.4Z" transform="translate(0 1)" fill="#2e3743"/>
  </g>
</svg>
