<svg xmlns="http://www.w3.org/2000/svg" width="60" height="60" viewBox="0 0 60 60">
  <g id="Server_financial" data-name="Server financial" transform="translate(-2 -2)">
    <path id="Caminho_941" data-name="Caminho 941" d="M32,40A11,11,0,1,0,43,51,11,11,0,0,0,32,40Zm0,20a9,9,0,1,1,9-9A9,9,0,0,1,32,60Z" fill="#2e3743"/>
    <path id="Caminho_942" data-name="Caminho 942" d="M33,44H31v2a2,2,0,0,0-2,2v2a2,2,0,0,0,2,2h2v2H29v2h2v2h2V56a2,2,0,0,0,2-2V52a2,2,0,0,0-2-2H31V48h4V46H33Z" fill="#2e3743"/>
    <path id="Caminho_943" data-name="Caminho 943" d="M45,50h2v2H45Z" fill="#2e3743"/>
    <path id="Caminho_944" data-name="Caminho 944" d="M52,49a1,1,0,0,1-1,1H49v2h2a3,3,0,0,0,3-3V34H52Z" fill="#2e3743"/>
    <path id="Caminho_945" data-name="Caminho 945" d="M17,50h2v2H17Z" fill="#2e3743"/>
    <path id="Caminho_946" data-name="Caminho 946" d="M12,49V34H10V49a3,3,0,0,0,3,3h2V50H13A1,1,0,0,1,12,49Z" fill="#2e3743"/>
    <path id="Caminho_947" data-name="Caminho 947" d="M53,14H50.94A8.977,8.977,0,0,0,36.76,7.7a14.982,14.982,0,0,0-26.45,6.34A8.993,8.993,0,0,0,11,32H23v3a3.009,3.009,0,0,0,3,3H38a3.009,3.009,0,0,0,3-3V32H53a9,9,0,1,0,0-18ZM39,35a1,1,0,0,1-1,1H26a1,1,0,0,1-1-1V32H39Zm0-5H25V26H39Zm0-6H25V21a1,1,0,0,1,1-1H38a1,1,0,0,1,1,1Zm18.96,3.95A7.034,7.034,0,0,1,53,30H41V21a3.009,3.009,0,0,0-3-3H26a3.009,3.009,0,0,0-3,3v9H11a7,7,0,1,1,0-14h.12A7.042,7.042,0,0,1,18,23h2a9.049,9.049,0,0,0-7.67-8.89A13.026,13.026,0,0,1,38,16.07l2-.14a14.949,14.949,0,0,0-2.11-6.58,7.017,7.017,0,1,1,4.99,12.66l.24,1.98A9.029,9.029,0,0,0,50.94,16H53a7.007,7.007,0,0,1,4.96,11.95Z" fill="#2e3743"/>
    <path id="Caminho_948" data-name="Caminho 948" d="M8,23a3,3,0,0,1,3-3V18a5,5,0,0,0,0,10H21V26H11A3,3,0,0,1,8,23Z" fill="#2e3743"/>
  </g>
</svg>
