<svg xmlns="http://www.w3.org/2000/svg" width="55.163" height="69.982" viewBox="0 0 55.163 69.982">
  <g id="_038-customer_service" data-name="038-customer service" transform="translate(-9.417 -2.018)">
    <path id="Caminho_803" data-name="Caminho 803" d="M63.583,72H10.417a1,1,0,0,1-1-1V60.664A7.8,7.8,0,0,1,14,53.567L23.229,49.4a6.354,6.354,0,0,0,3.731-5.783v-2.03a1,1,0,0,1,2,0v2.024a8.359,8.359,0,0,1-4.907,7.606L14.82,55.39a5.8,5.8,0,0,0-3.4,5.274V70H62.583V60.664a5.8,5.8,0,0,0-3.4-5.274L49.95,51.217a8.358,8.358,0,0,1-4.908-7.6v-2.03a1,1,0,0,1,2,0v2.025A6.356,6.356,0,0,0,50.771,49.4L60,53.567a7.8,7.8,0,0,1,4.58,7.1V71a1,1,0,0,1-1,1Z" fill="#2e3743"/>
    <path id="Caminho_804" data-name="Caminho 804" d="M37,46.653a8.831,8.831,0,0,1-4.907-1.491L26,41.094A8.567,8.567,0,0,1,22.22,34.5l-.91-12.062a1,1,0,0,1,1.069-1.072c.154.012,15.4,1,21.774-6.451a1,1,0,0,1,1.689.281c.021.052,2.128,5.227,6.1,6.2a1,1,0,0,1,.759,1.046L51.781,34.52A8.56,8.56,0,0,1,48,41.094l-6.1,4.068A8.831,8.831,0,0,1,37,46.653ZM23.385,23.415l.826,10.954a6.569,6.569,0,0,0,2.894,5.061L33.2,43.5a6.822,6.822,0,0,0,7.594,0l6.1-4.068a6.556,6.556,0,0,0,2.893-5.044l.852-11.3c-3.081-1.129-5.056-4.042-6-5.784-6.312,5.979-17.594,6.211-21.254,6.111Z" fill="#2e3743"/>
    <path id="Caminho_805" data-name="Caminho 805" d="M36.989,59.557a1.031,1.031,0,0,1-.214-.023c-6.52-1.426-10.827-6.437-12.814-9.3A1,1,0,0,1,25.6,49.1c1.8,2.588,5.65,7.093,11.384,8.436,5.746-1.353,9.6-5.86,11.4-8.448a1,1,0,0,1,1.643,1.141c-1.986,2.86-6.293,7.873-12.823,9.309a.977.977,0,0,1-.215.019Z" fill="#2e3743"/>
    <path id="Caminho_806" data-name="Caminho 806" d="M53.978,71.979a1,1,0,0,1-1-1V65.206a5.922,5.922,0,0,1,2.07-4.5l6.178-5.3a1,1,0,1,1,1.3,1.518l-6.178,5.3a3.923,3.923,0,0,0-1.372,2.983V70.98a1,1,0,0,1-1,1Z" fill="#2e3743"/>
    <path id="Caminho_807" data-name="Caminho 807" d="M20,71.979a1,1,0,0,1-1-1V65.206a3.923,3.923,0,0,0-1.372-2.983l-6.178-5.3a1,1,0,1,1,1.3-1.518l6.179,5.3A5.926,5.926,0,0,1,21,65.2v5.773a1,1,0,0,1-1,1Z" fill="#2e3743"/>
    <path id="Caminho_808" data-name="Caminho 808" d="M52.755,35.264c-.066,0-.132,0-.2-.006l-1.826-.15a1,1,0,1,1,.164-1.993l1.807.148a1.1,1.1,0,0,0,.8-.283,1.134,1.134,0,0,0,.383-.782l.2-3.128a2.191,2.191,0,0,0-2.052-2.325l-.7-.079a1,1,0,0,1,.228-1.987l.648.074A4.191,4.191,0,0,1,56.082,29.2l-.2,3.128a3.143,3.143,0,0,1-3.127,2.936Z" fill="#2e3743"/>
    <path id="Caminho_809" data-name="Caminho 809" d="M21.236,35.263a3.143,3.143,0,0,1-3.143-2.939L17.9,29.2a4.192,4.192,0,0,1,3.925-4.447l.6-.07a1,1,0,1,1,.229,1.987L22,26.741a2.217,2.217,0,0,0-1.561.741,2.177,2.177,0,0,0-.544,1.588l.2,3.128a1.13,1.13,0,0,0,.383.782,1.152,1.152,0,0,0,.823.282l1.788-.147a1,1,0,1,1,.165,1.993l-1.808.148C21.372,35.261,21.3,35.263,21.236,35.263Z" fill="#2e3743"/>
    <path id="Caminho_810" data-name="Caminho 810" d="M45.061,4.86a1,1,0,0,1-.3-.044,17.423,17.423,0,0,0-2.742-.6A1,1,0,1,1,42.3,2.229a19.476,19.476,0,0,1,3.058.675,1,1,0,0,1-.293,1.956Z" fill="#2e3743"/>
    <path id="Caminho_811" data-name="Caminho 811" d="M46.479,47.11a1,1,0,0,1-.168-1.985l12.408-2.133c.313-3.091,1.263-15.4-2.174-25.346a1,1,0,1,1,1.891-.653c4.1,11.857,2.266,26.375,2.186,26.987a1,1,0,0,1-.823.855L46.649,47.1a.985.985,0,0,1-.17.01Z" fill="#2e3743"/>
    <path id="Caminho_812" data-name="Caminho 812" d="M53.38,10.59a1,1,0,0,1-.783-.378,16.68,16.68,0,0,0-2.066-2.18,1,1,0,0,1,1.318-1.5,18.787,18.787,0,0,1,2.314,2.441A1,1,0,0,1,53.38,10.6Z" fill="#2e3743"/>
    <path id="Caminho_813" data-name="Caminho 813" d="M27.5,47.11a.985.985,0,0,1-.17-.015l-13.15-2.26a1,1,0,0,1-.823-.855C13.23,43,10.34,19.933,20.3,8.374A18.256,18.256,0,0,1,34.422,2.02l.088,1v1A16.37,16.37,0,0,0,21.818,9.679c-8.437,9.788-6.963,29.3-6.557,33.313l12.408,2.133A1,1,0,0,1,27.5,47.11Z" fill="#2e3743"/>
    <path id="Caminho_814" data-name="Caminho 814" d="M39.56,39.7a1,1,0,1,1-.009-2c8.759-.081,10.28-3.579,10.294-3.615a1.011,1.011,0,0,1,1.286-.569.99.99,0,0,1,.591,1.258c-.07.2-1.832,4.83-12.153,4.926Z" fill="#2e3743"/>
    <path id="Caminho_815" data-name="Caminho 815" d="M36.786,41.971A3.554,3.554,0,0,1,33.009,38.7a3.553,3.553,0,0,1,3.777-3.266A3.554,3.554,0,0,1,40.564,38.7,3.555,3.555,0,0,1,36.786,41.971Zm0-4.533c-.963,0-1.777.58-1.777,1.266s.814,1.267,1.777,1.267,1.778-.58,1.778-1.267S37.75,37.438,36.786,37.438Z" fill="#2e3743"/>
  </g>
</svg>
