<svg xmlns="http://www.w3.org/2000/svg" width="70" height="70" viewBox="0 0 70 70">
  <g id="_022-tick_mark" data-name="022-tick mark" transform="translate(-2 -2)">
    <path id="Caminho_816" data-name="Caminho 816" d="M37,72A35,35,0,1,1,72,37,35,35,0,0,1,37,72ZM37,4A33,33,0,1,0,70,37,33,33,0,0,0,37,4Z" fill="#2e3743"/>
    <path id="Caminho_817" data-name="Caminho 817" d="M57.229,54.32a1,1,0,0,1-.779-1.626,22.81,22.81,0,0,0,1.726-2.433A1,1,0,0,1,59.885,51.3a24.766,24.766,0,0,1-1.874,2.647,1,1,0,0,1-.782.373Z" fill="#2e3743"/>
    <path id="Caminho_818" data-name="Caminho 818" d="M37,64A27,27,0,1,1,64,37a26.6,26.6,0,0,1-.821,6.6,1,1,0,0,1-1.938-.5A24.564,24.564,0,0,0,62,37,25,25,0,1,0,37,62a24.657,24.657,0,0,0,5.622-.644,1,1,0,0,1,.455,1.948A26.691,26.691,0,0,1,37,64Z" fill="#2e3743"/>
    <path id="Caminho_819" data-name="Caminho 819" d="M49.641,60.71a1,1,0,0,1-.485-1.876,23.063,23.063,0,0,0,2.359-1.5,1,1,0,1,1,1.17,1.622,25.282,25.282,0,0,1-2.562,1.624A.99.99,0,0,1,49.641,60.71Z" fill="#2e3743"/>
    <path id="Caminho_820" data-name="Caminho 820" d="M31.578,46.5a1,1,0,0,1-.707-.293l-6.156-6.156a1,1,0,1,1,1.414-1.414l5.449,5.449L47.871,27.793a1,1,0,1,1,1.414,1.414l-17,17a1,1,0,0,1-.707.293Z" fill="#2e3743"/>
  </g>
</svg>
