<svg xmlns="http://www.w3.org/2000/svg" width="60.011" height="60.014" viewBox="0 0 60.011 60.014">
  <g id="User_Interface" data-name="User Interface" transform="translate(-2 -1.986)">
    <path id="Caminho_959" data-name="Caminho 959" d="M17,22a1,1,0,0,0,1-1V7a1,1,0,0,0-1-1H3A1,1,0,0,0,2,7V21a1,1,0,0,0,1,1ZM4,8H16V20H4Z" fill="#2e3743"/>
    <path id="Caminho_960" data-name="Caminho 960" d="M13.447,13.1l-6-3A1,1,0,0,0,6,11v6a1,1,0,0,0,1.447.9l6-3a1,1,0,0,0,0-1.79ZM8,15.382V12.618L10.764,14Z" fill="#2e3743"/>
    <path id="Caminho_961" data-name="Caminho 961" d="M50,46a8,8,0,1,0,8,8A8,8,0,0,0,50,46Zm4,12.46V51H52v8.65a5.97,5.97,0,0,1-1,.26V53H49v6.91a5.97,5.97,0,0,1-1-.26V55H46v3.46a6,6,0,1,1,8,0Z" fill="#2e3743"/>
    <path id="Caminho_962" data-name="Caminho 962" d="M58.41,13.02A8,8,0,1,0,43.52,7.15,5.991,5.991,0,0,0,34,12a6.635,6.635,0,0,0,.08,1H34a4,4,0,0,0,0,8h3v1a1,1,0,0,0,.76.97l.67.17-.36.59a1,1,0,0,0,.15,1.22l2.83,2.83a1.014,1.014,0,0,0,1.22.15l.59-.36.17.67A1,1,0,0,0,44,29h4a1,1,0,0,0,.97-.76l.17-.67.59.36a1.014,1.014,0,0,0,1.22-.15l2.83-2.83a1,1,0,0,0,.15-1.22l-.36-.59.67-.17A1,1,0,0,0,55,22V21h3a4,4,0,0,0,.41-7.98ZM53,21.22l-1.22.3a1.007,1.007,0,0,0-.68.59.989.989,0,0,0,.07.9l.64,1.08-1.72,1.72-1.08-.65a1.019,1.019,0,0,0-.9-.06,1.007,1.007,0,0,0-.59.68L47.22,27H44.78l-.3-1.22a1.007,1.007,0,0,0-.59-.68,1.019,1.019,0,0,0-.9.06l-1.08.65-1.72-1.72.64-1.08a.989.989,0,0,0,.07-.9,1.007,1.007,0,0,0-.68-.59L39,21.22V18.78l1.22-.3a1.007,1.007,0,0,0,.68-.59.989.989,0,0,0-.07-.9l-.64-1.08,1.72-1.72,1.08.64a.989.989,0,0,0,.9.07,1.007,1.007,0,0,0,.59-.68l.3-1.22h2.44l.3,1.22a1.007,1.007,0,0,0,.59.68.989.989,0,0,0,.9-.07l1.08-.64,1.72,1.72-.64,1.08a.989.989,0,0,0-.07.9,1.007,1.007,0,0,0,.68.59l1.22.3ZM58,19H55V18a1,1,0,0,0-.76-.97l-.67-.17.36-.59a1,1,0,0,0-.15-1.22l-2.83-2.83a1,1,0,0,0-1.22-.15l-.59.36-.17-.67A1,1,0,0,0,48,11H44a1,1,0,0,0-.97.76l-.17.67-.59-.36a1.014,1.014,0,0,0-1.22.15l-2.83,2.83a1,1,0,0,0-.15,1.22l.36.59-.67.17A1,1,0,0,0,37,18v1H34a2,2,0,0,1,0-4h1.42a.989.989,0,0,0,.91-1.4,3.993,3.993,0,0,1,6.91-3.92,1.013,1.013,0,0,0,1.06.39.992.992,0,0,0,.75-.84A6,6,0,0,1,57,10a5.938,5.938,0,0,1-1.08,3.43,1,1,0,0,0-.07,1.03,1.02,1.02,0,0,0,.89.54H58a2,2,0,0,1,0,4Z" fill="#2e3743"/>
    <path id="Caminho_963" data-name="Caminho 963" d="M46,16a4,4,0,1,0,4,4A4,4,0,0,0,46,16Zm0,6a2,2,0,1,1,2-2A2,2,0,0,1,46,22Z" fill="#2e3743"/>
    <path id="Caminho_964" data-name="Caminho 964" d="M26,23V16a3,3,0,0,0-3-3H20v2h3a1,1,0,0,1,1,1v7a3,3,0,0,0,3,3h5V24H27A1,1,0,0,1,26,23Z" fill="#2e3743"/>
    <rect id="Retângulo_419" data-name="Retângulo 419" width="2" height="2" transform="translate(34 24)" fill="#2e3743"/>
    <rect id="Retângulo_420" data-name="Retângulo 420" width="2" height="2" transform="translate(45 31)" fill="#2e3743"/>
    <path id="Caminho_965" data-name="Caminho 965" d="M45,38a3,3,0,0,0,3,3,1,1,0,0,1,1,1v2h2V42a3,3,0,0,0-3-3,1,1,0,0,1-1-1V35H45Z" fill="#2e3743"/>
    <path id="Caminho_966" data-name="Caminho 966" d="M30.41,54.09l-9-4a.949.949,0,0,0-.72-.03l-.32-1.93A7,7,0,0,0,24,42v-.59l2.71-2.7A1.033,1.033,0,0,0,27,38V35a7.008,7.008,0,0,0-7-7H14a7.008,7.008,0,0,0-7,7v3a1.033,1.033,0,0,0,.29.71L10,41.41V42a7,7,0,0,0,3.63,6.13l-.32,1.93a.949.949,0,0,0-.72.03l-9,4A.987.987,0,0,0,3,55v6a1,1,0,0,0,1,1H30a1,1,0,0,0,1-1V55a.987.987,0,0,0-.59-.91ZM10,36v2.59l-1-1V35a5,5,0,0,1,5-5h6a5,5,0,0,1,5,5v2.59l-1,1V36a1,1,0,0,0-.76-.97l-8-2a.972.972,0,0,0-.69.08l-4,2A.977.977,0,0,0,10,36Zm2,6V36.62l3.12-1.56L22,36.78V42a5,5,0,1,1-10,0Zm6.93,9.66L17,53.59l-1.93-1.93.47-2.82a6.741,6.741,0,0,0,2.92,0ZM29,60H5V55.65l7.78-3.46,3.51,3.52a1.008,1.008,0,0,0,1.42,0l3.51-3.52L29,55.65Z" fill="#2e3743"/>
    <rect id="Retângulo_421" data-name="Retângulo 421" width="2" height="2" transform="translate(18 39)" fill="#2e3743"/>
    <rect id="Retângulo_422" data-name="Retângulo 422" width="2" height="2" transform="translate(14 39)" fill="#2e3743"/>
  </g>
</svg>
